<?xml version="1.0" encoding="utf-8"?>
<!-- Generator: Adobe Illustrator 20.1.0, SVG Export Plug-In . SVG Version: 6.00 Build 0)  -->
<svg version="1.1" id="Layer_1" xmlns="http://www.w3.org/2000/svg" xmlns:xlink="http://www.w3.org/1999/xlink" x="0px" y="0px"
	 viewBox="0 0 782.4 267" style="enable-background:new 0 0 782.4 267;" xml:space="preserve">
<style type="text/css">
	.st0{fill:#3FB4FF;}
</style>
<g>
	<path class="st0" d="M120,75c7.3,0,13.3-6,13.3-13.3s-6-13.3-13.3-13.3s-13.3,6-13.3,13.3S112.7,75,120,75z"/>
	<path class="st0" d="M120,86.7c-0.5,0-0.9-0.1-1.4-0.1L93,152.7h23.1v-9.5c0-2.6,1.4-4.8,4-4.8s4,2.1,4,4.8v9.5H147l-25.6-66.1
		C120.9,86.7,120.5,86.7,120,86.7z"/>
	<path class="st0" d="M240,82.9c0-11.5-6.2-22.2-16.2-28L136.1,4.3c-10-5.8-22.3-5.8-32.3,0L16.1,55C6.2,60.7,0,71.4,0,82.9l0,101.2
		c0,11.5,6.2,22.2,16.2,28l87.7,50.6c10,5.8,22.3,5.8,32.3,0l87.7-50.6c10-5.8,16.1-16.4,16.1-28L240,82.9z M181.6,218.6
		c0.8,2.3-0.4,4.6-2.7,5.4c-2.2,0.7-4.6-0.3-5.4-2.4l-22.8-58.9h-26.6v9.3c0,2.6-1.4,4.8-4,4.8s-4-2.1-4-4.8v-9.3H89.3l-22.8,58.9
		c-0.9,2.2-3.4,3.2-5.6,2.4c-2.2-0.8-3.3-3.1-2.5-5.3l19.1-56H62.4c-2.6,0-4.8-2.4-4.8-5s2.1-5,4.8-5h18.3l24.2-71
		C98.9,77.1,95,69.9,95,61.7c0-12.2,8.8-22.4,20.4-24.6l0.4-18.6c0.1-2.4,2-4.2,4.4-4.2c2.3,0.1,4.1,1.9,4.2,4.2l0.4,18.6
		c11.6,2.2,20.4,12.4,20.4,24.6c0,8.2-4,15.4-10.1,20l24.2,71h18.3c2.6,0,4.8,2.4,4.8,5s-2.1,5-4.8,5h-15.1L181.6,218.6z"/>
</g>
<g>
	<path class="st0" d="M280.5,185.3c-3.2,0-4.2-1.6-3-4.7l34.7-91.2c1.5-3.8,3.7-5.7,6.7-5.7h9.9c3,0,5.2,1.9,6.7,5.7l34.7,91.2
		c1.2,3.1,0.2,4.7-3,4.7h-10.5c-2.9,0-5-1.6-6.2-4.9l-7.3-19.1h-38.6l-7.3,19.1c-1.2,3.3-3.3,4.9-6.2,4.9H280.5z M311.3,143.8h25.2
		l-8.6-22.5c-1.6-2.6-2.5-4.6-2.8-5.8c-0.3-1.2-0.7-3-1-5.3h-0.4c-0.4,2.4-0.7,4.1-1,5.3c-0.3,1.2-1.3,3.1-2.8,5.8L311.3,143.8z"/>
	<path class="st0" d="M372.2,116.5c-1.2-3.7-0.5-5.5,2-5.5H386c2,0,3.4,1.2,4.2,3.6l13.2,41.5c0.3,2.3,0.6,4.6,0.9,6.9
		c0.2,2.3,0.4,4.1,0.4,5.5h0.2c0.1-1.4,0.2-3.3,0.4-5.5c0.2-2.3,0.5-4.6,0.9-6.9l13.2-41.5c0.7-2.4,2.1-3.6,4.2-3.6h11.7
		c2.5,0,3.2,1.8,2,5.5l-20.3,64.1c-1,3.2-2.7,4.7-5.2,4.7h-14c-2.5,0-4.2-1.6-5.2-4.7L372.2,116.5z"/>
	<path class="st0" d="M444.6,148.1c0-11.9,3-21.4,9-28.3c6-6.9,14.4-10.3,25.3-10.3c12.7,0,22.1,3.3,28.2,9.8
		c6.1,6.5,9.2,17,9.2,31.5c0,2.8-1.3,4.3-4,4.3h-46.8c0.8,7.8,2.7,12.8,5.8,14.8c3.1,2,6.7,3,10.8,3c3.9,0,6.9-0.5,9-1.6
		c2.1-1,3.8-2.5,5.2-4.3c1.6-2.1,3.6-2.4,6-1l7.1,4.3c2.8,1.7,3.2,3.7,1.2,6.1c-2.9,3.4-6.3,6-10.1,7.7c-3.9,1.7-10,2.5-18.3,2.5
		c-13.6,0-23.2-3.4-29-10.3C447.5,169.5,444.6,160.1,444.6,148.1z M465.6,140.8h30.9c0-5.1-1.3-9.3-3.8-12.6
		c-2.6-3.2-6.6-4.9-12.2-4.9c-4.5,0-8,1.6-10.6,4.7C467.2,131.2,465.8,135.4,465.6,140.8z"/>
	<path class="st0" d="M535.9,185.3c-2.8,0-4.2-1.4-4.2-4.2v-65.9c0-2.8,1.4-4.3,4.2-4.3h11.2c2.8,0,4.3,1.4,4.3,4.3v5.8
		c1.2-3,3.3-5.7,6.2-8c2.9-2.3,6.4-3.5,10.3-3.5c2.7,0,5,0.3,6.7,1c1.7,0.6,2.3,1.7,1.9,3.4l-2,8.4c-0.4,1.9-1.7,2.5-3.8,1.7
		c-1.2-0.4-2.4-0.6-3.6-0.6c-4.6,0-8.3,2.7-11.3,8.1c-3,5.4-4.5,13.3-4.5,23.7v25.8c0,2.8-1.4,4.2-4.2,4.2H535.9z"/>
	<path class="st0" d="M591.7,100c-2.8,0-4.2-1.4-4.2-4.3v-9.1c0-2.8,1.4-4.3,4.2-4.3H603c2.8,0,4.3,1.4,4.3,4.3v9.1
		c0,2.8-1.4,4.3-4.3,4.3H591.7z M591.7,185.3c-2.8,0-4.2-1.4-4.2-4.2v-65.9c0-2.8,1.4-4.3,4.2-4.3H603c2.8,0,4.3,1.4,4.3,4.3v65.9
		c0,2.8-1.4,4.2-4.3,4.2H591.7z"/>
	<path class="st0" d="M624,125.1c-2.8,0-4.2-1.2-4.2-3.5v-7.1c0-2.4,1.4-3.5,4.2-3.5h4.8v-2.5c0-2.1,0.5-4.1,1.5-5.8l5.5-9.6
		c1-1.8,2.3-2.7,3.7-2.7h5c2.8,0,4.3,1.4,4.3,4.3v16.3h11.5c2.8,0,4.2,1.2,4.2,3.5v7.1c0,2.4-1.4,3.5-4.2,3.5h-11.5v35.1
		c0,4.8,0.3,8.3,1,10.4c0.7,2.1,2.5,3.2,5.3,3.2c1.5,0,3.1-0.2,5-0.7s3.3-1,4.3-1.5c1.7-0.8,2.7-0.2,3.3,1.6l2.1,8.1
		c0.4,1.6-0.2,2.8-1.8,3.5c-1.6,0.7-3.7,1.4-6.4,1.9c-2.7,0.6-5.4,0.9-8.2,0.9c-6.8,0-12.5-1.4-17.3-4.2c-4.8-2.8-7.2-8.5-7.2-17.2
		v-41.2H624z"/>
	<path class="st0" d="M679.1,165.5c0-9.4,4.5-16.3,13.5-20.5c9-4.3,19.3-6.5,30.9-6.8v-2.8c0-4.3-1.1-7.4-3.3-9.2
		c-2.2-1.8-5.2-2.7-9.1-2.7c-2.7,0-5.2,0.4-7.3,1.2c-2.1,0.8-3.9,1.7-5.5,2.7c-1.5,1-2.9,2-4.1,3.1c-2.2,1.9-4,2-5.4,0.3l-5.9-7.2
		c-1.5-1.8-1.1-3.6,1.1-5.5c1.7-1.5,3.6-2.7,5.8-3.8c2.2-1.1,5.1-2.1,8.7-3.1c3.6-1,8.4-1.5,14.2-1.5c9.8,0,17.4,2.3,22.6,6.8
		c5.3,4.5,7.9,11.2,7.9,20v44.7c0,2.8-1.4,4.2-4.3,4.2h-11.7c-2.6,0-3.9-1.4-3.9-4.2v-2.1c-2.8,2.7-6.1,4.7-10,5.9
		s-7.5,1.9-10.7,1.9c-7.7,0-13.6-1.9-17.6-5.7C681.1,177.2,679.1,172.1,679.1,165.5z M700.1,165.1c0,1.7,0.3,3.1,1,4.3
		c0.7,1.2,1.7,2.1,3.1,2.7c1.4,0.6,3,0.9,4.7,0.9c2.4,0,4.7-0.3,7-1c2.3-0.7,4.8-2.2,7.6-4.7v-15.4c-7.9,0.9-13.2,2.1-15.9,3.5
		c-2.7,1.4-4.6,2.9-5.8,4.4C700.6,161.2,700.1,163,700.1,165.1z"/>
	<path class="st0" d="M766.9,185.3c-2.8,0-4.2-1.4-4.2-4.2V97.4c0-2.1,0.5-4.1,1.5-5.8l5.5-9.6c1-1.8,2.3-2.7,3.7-2.7h5
		c2.8,0,4.3,1.4,4.3,4.3v97.5c0,2.8-1.4,4.2-4.3,4.2H766.9z"/>
</g>
</svg>
